<mxfile host="app.diagrams.net" modified="2020-08-10T10:22:58.886Z" agent="5.0 (Macintosh; Intel Mac OS X 10_15_5) AppleWebKit/537.36 (KHTML, like Gecko) Chrome/84.0.4147.105 Safari/537.36" etag="MsHMEVmpDsYptDf32Bnc" version="13.6.0" type="github">
  <diagram id="eiAgZ4NPhMDnj-uZ2YI9" name="Page-1">
    <mxGraphModel dx="1188" dy="318" grid="1" gridSize="10" guides="1" tooltips="1" connect="1" arrows="1" fold="1" page="1" pageScale="1" pageWidth="1654" pageHeight="2336" math="0" shadow="0">
      <root>
        <mxCell id="0" />
        <mxCell id="1" parent="0" />
        <mxCell id="exzSyw8KwICSEQk-Rghd-21" value="" style="rounded=1;whiteSpace=wrap;html=1;" vertex="1" parent="1">
          <mxGeometry x="80" y="70" width="300" height="560" as="geometry" />
        </mxCell>
        <mxCell id="exzSyw8KwICSEQk-Rghd-1" value="" style="rounded=1;whiteSpace=wrap;html=1;" vertex="1" parent="1">
          <mxGeometry x="420" y="60" width="360" height="560" as="geometry" />
        </mxCell>
        <mxCell id="exzSyw8KwICSEQk-Rghd-2" value="新建APP&lt;br&gt;(eg. shopee-finance-credit-id)" style="rounded=0;whiteSpace=wrap;html=1;" vertex="1" parent="1">
          <mxGeometry x="550" y="150" width="195" height="50" as="geometry" />
        </mxCell>
        <mxCell id="exzSyw8KwICSEQk-Rghd-3" value="&lt;font style=&quot;font-size: 14px&quot;&gt;ToC Admin&lt;/font&gt;" style="text;html=1;strokeColor=none;fillColor=none;align=center;verticalAlign=middle;whiteSpace=wrap;rounded=0;" vertex="1" parent="1">
          <mxGeometry x="570" y="90" width="150" height="20" as="geometry" />
        </mxCell>
        <mxCell id="exzSyw8KwICSEQk-Rghd-8" value="" style="edgeStyle=orthogonalEdgeStyle;rounded=0;orthogonalLoop=1;jettySize=auto;html=1;exitX=1;exitY=0.5;exitDx=0;exitDy=0;entryX=0;entryY=0.5;entryDx=0;entryDy=0;" edge="1" parent="1" source="exzSyw8KwICSEQk-Rghd-34" target="exzSyw8KwICSEQk-Rghd-7">
          <mxGeometry relative="1" as="geometry" />
        </mxCell>
        <mxCell id="exzSyw8KwICSEQk-Rghd-35" value="" style="edgeStyle=orthogonalEdgeStyle;rounded=0;orthogonalLoop=1;jettySize=auto;html=1;" edge="1" parent="1" source="exzSyw8KwICSEQk-Rghd-5" target="exzSyw8KwICSEQk-Rghd-34">
          <mxGeometry relative="1" as="geometry" />
        </mxCell>
        <mxCell id="exzSyw8KwICSEQk-Rghd-5" value="代码打包" style="rounded=0;whiteSpace=wrap;html=1;" vertex="1" parent="1">
          <mxGeometry x="160" y="240" width="120" height="60" as="geometry" />
        </mxCell>
        <mxCell id="exzSyw8KwICSEQk-Rghd-10" value="" style="edgeStyle=orthogonalEdgeStyle;rounded=0;orthogonalLoop=1;jettySize=auto;html=1;" edge="1" parent="1" source="exzSyw8KwICSEQk-Rghd-7" target="exzSyw8KwICSEQk-Rghd-9">
          <mxGeometry relative="1" as="geometry" />
        </mxCell>
        <mxCell id="exzSyw8KwICSEQk-Rghd-7" value="在app下新建一个bundle" style="whiteSpace=wrap;html=1;rounded=0;" vertex="1" parent="1">
          <mxGeometry x="600" y="240" width="120" height="60" as="geometry" />
        </mxCell>
        <mxCell id="exzSyw8KwICSEQk-Rghd-12" value="" style="edgeStyle=orthogonalEdgeStyle;rounded=0;orthogonalLoop=1;jettySize=auto;html=1;" edge="1" parent="1" source="exzSyw8KwICSEQk-Rghd-9" target="exzSyw8KwICSEQk-Rghd-11">
          <mxGeometry relative="1" as="geometry" />
        </mxCell>
        <mxCell id="exzSyw8KwICSEQk-Rghd-9" value="资源上传到bundle" style="whiteSpace=wrap;html=1;rounded=0;" vertex="1" parent="1">
          <mxGeometry x="600" y="390" width="120" height="60" as="geometry" />
        </mxCell>
        <mxCell id="exzSyw8KwICSEQk-Rghd-11" value="点击发布" style="whiteSpace=wrap;html=1;rounded=0;" vertex="1" parent="1">
          <mxGeometry x="600" y="500" width="120" height="60" as="geometry" />
        </mxCell>
        <mxCell id="exzSyw8KwICSEQk-Rghd-13" value="" style="rounded=1;whiteSpace=wrap;html=1;" vertex="1" parent="1">
          <mxGeometry x="810" y="70" width="260" height="560" as="geometry" />
        </mxCell>
        <mxCell id="exzSyw8KwICSEQk-Rghd-14" value="Shopee App" style="text;html=1;strokeColor=none;fillColor=none;align=center;verticalAlign=middle;whiteSpace=wrap;rounded=0;" vertex="1" parent="1">
          <mxGeometry x="880" y="80" width="120" height="20" as="geometry" />
        </mxCell>
        <mxCell id="exzSyw8KwICSEQk-Rghd-17" value="" style="edgeStyle=orthogonalEdgeStyle;rounded=0;orthogonalLoop=1;jettySize=auto;html=1;" edge="1" parent="1" source="exzSyw8KwICSEQk-Rghd-15" target="exzSyw8KwICSEQk-Rghd-16">
          <mxGeometry relative="1" as="geometry" />
        </mxCell>
        <mxCell id="exzSyw8KwICSEQk-Rghd-15" value="拦截有离线包后缀的请求" style="rounded=0;whiteSpace=wrap;html=1;" vertex="1" parent="1">
          <mxGeometry x="870" y="115" width="150" height="60" as="geometry" />
        </mxCell>
        <mxCell id="exzSyw8KwICSEQk-Rghd-19" value="" style="edgeStyle=orthogonalEdgeStyle;rounded=0;orthogonalLoop=1;jettySize=auto;html=1;" edge="1" parent="1" source="exzSyw8KwICSEQk-Rghd-16" target="exzSyw8KwICSEQk-Rghd-18">
          <mxGeometry relative="1" as="geometry" />
        </mxCell>
        <mxCell id="exzSyw8KwICSEQk-Rghd-16" value="离线包匹配逻辑" style="whiteSpace=wrap;html=1;rounded=0;" vertex="1" parent="1">
          <mxGeometry x="885" y="255" width="120" height="60" as="geometry" />
        </mxCell>
        <mxCell id="exzSyw8KwICSEQk-Rghd-18" value="返回线上或离线资源" style="whiteSpace=wrap;html=1;rounded=0;" vertex="1" parent="1">
          <mxGeometry x="885" y="395" width="120" height="60" as="geometry" />
        </mxCell>
        <mxCell id="exzSyw8KwICSEQk-Rghd-23" value="&lt;font style=&quot;font-size: 14px&quot;&gt;Jenkins&lt;/font&gt;" style="text;html=1;strokeColor=none;fillColor=none;align=center;verticalAlign=middle;whiteSpace=wrap;rounded=0;" vertex="1" parent="1">
          <mxGeometry x="160" y="90" width="80" height="30" as="geometry" />
        </mxCell>
        <mxCell id="exzSyw8KwICSEQk-Rghd-26" value="mitra fe-publish" style="rounded=1;whiteSpace=wrap;html=1;" vertex="1" parent="1">
          <mxGeometry x="640" y="330" width="120" height="20" as="geometry" />
        </mxCell>
        <mxCell id="exzSyw8KwICSEQk-Rghd-28" value="mitra fe-createpackage" style="rounded=1;whiteSpace=wrap;html=1;" vertex="1" parent="1">
          <mxGeometry x="440" y="240" width="150" height="20" as="geometry" />
        </mxCell>
        <mxCell id="exzSyw8KwICSEQk-Rghd-32" value="" style="edgeStyle=orthogonalEdgeStyle;rounded=0;orthogonalLoop=1;jettySize=auto;html=1;" edge="1" parent="1" source="exzSyw8KwICSEQk-Rghd-31" target="exzSyw8KwICSEQk-Rghd-5">
          <mxGeometry relative="1" as="geometry" />
        </mxCell>
        <mxCell id="exzSyw8KwICSEQk-Rghd-31" value="选择版本和发布类型" style="rounded=1;whiteSpace=wrap;html=1;" vertex="1" parent="1">
          <mxGeometry x="160" y="150" width="120" height="60" as="geometry" />
        </mxCell>
        <mxCell id="exzSyw8KwICSEQk-Rghd-34" value="带离线包后缀产物" style="whiteSpace=wrap;html=1;rounded=0;" vertex="1" parent="1">
          <mxGeometry x="160" y="330" width="120" height="60" as="geometry" />
        </mxCell>
      </root>
    </mxGraphModel>
  </diagram>
</mxfile>
